<?xml version="1.0" encoding="UTF-8"?>
<svg id="Layer_1" data-name="Layer 1" xmlns="http://www.w3.org/2000/svg" viewBox="0 0 17.48 17.48">
  <defs>
    <style>
      .cls-1 {
        stroke-width: 0px;
      }
    </style>
  </defs>
  <path class="cls-1" d="M16.9.58c-.78-.78-2.04-.78-2.81,0l-5.34,5.34L3.4.58C2.62-.19,1.36-.19.58.58-.19,1.36-.19,2.62.58,3.4l5.34,5.34L.58,14.08c-.78.78-.78,2.04,0,2.81.78.78,2.04.78,2.81,0l5.34-5.34,5.34,5.34c.78.78,2.04.78,2.81,0,.78-.78.78-2.04,0-2.81l-5.34-5.34,5.34-5.34c.78-.78.78-2.04,0-2.81h0Z"/>
</svg>