<?xml version="1.0" encoding="UTF-8"?>
<svg id="Layer_1" data-name="Layer 1" xmlns="http://www.w3.org/2000/svg" viewBox="0 0 16.24 13.53">
  <defs>
    <style>
      .cls-1 {
        fill: #fff;
        stroke-width: 0px;
      }
    </style>
  </defs>
  <path class="cls-1" d="m0,1.35C0,.61.61,0,1.35,0h13.53c.75,0,1.35.61,1.35,1.35s-.61,1.35-1.35,1.35H1.35c-.75,0-1.35-.61-1.35-1.35Zm14.88,4.06H1.35c-.75,0-1.35.61-1.35,1.35s.61,1.35,1.35,1.35h13.53c.75,0,1.35-.61,1.35-1.35s-.61-1.35-1.35-1.35Zm0,5.41H1.35c-.75,0-1.35.61-1.35,1.35s.61,1.35,1.35,1.35h13.53c.75,0,1.35-.61,1.35-1.35s-.61-1.35-1.35-1.35Z"/>
</svg>