<?xml version="1.0" encoding="UTF-8"?>
<svg id="Layer_1" data-name="Layer 1" xmlns="http://www.w3.org/2000/svg" viewBox="0 0 40.01 39.21">
  <defs>
    <style>
      .cls-1 {
        fill: #fff;
        stroke-width: 0px;
      }
    </style>
  </defs>
  <path class="cls-1" d="m0,3.33C0,1.5,1.5,0,3.33,0h33.35c1.85,0,3.33,1.5,3.33,3.33s-1.5,3.33-3.33,3.33H3.33c-1.85,0-3.33-1.5-3.33-3.33Zm36.68,13.34H3.33c-1.85,0-3.33,1.5-3.33,3.33s1.5,3.33,3.33,3.33h33.35c1.85,0,3.33-1.5,3.33-3.33s-1.5-3.33-3.33-3.33Zm0,15.89H3.33c-1.85,0-3.33,1.5-3.33,3.33s1.5,3.33,3.33,3.33h33.35c1.85,0,3.33-1.5,3.33-3.33s-1.5-3.33-3.33-3.33Z"/>
</svg>