<?xml version="1.0" encoding="UTF-8"?>
<svg id="Layer_1" data-name="Layer 1" xmlns="http://www.w3.org/2000/svg" viewBox="0 0 40 40">
  <defs>
    <style>
      .cls-1 {
        fill: #fff;
        stroke-width: 0px;
      }
    </style>
  </defs>
  <path class="cls-1" d="m-.01,3.72C-.01,1.9,1.49.39,3.32.39h33.35c1.85,0,3.33,1.5,3.33,3.33s-1.5,3.33-3.33,3.33H3.32C1.47,7.05-.01,5.55-.01,3.72Zm36.68,13.34H3.32C1.47,17.06-.01,18.56-.01,20.39s1.5,3.33,3.33,3.33h33.35c1.85,0,3.33-1.5,3.33-3.33s-1.5-3.33-3.33-3.33Zm0,15.89H3.32C1.47,32.95-.01,34.45-.01,36.28s1.5,3.33,3.33,3.33h33.35c1.85,0,3.33-1.5,3.33-3.33s-1.5-3.33-3.33-3.33Z"/>
</svg>