<svg xmlns:dc="http://purl.org/dc/elements/1.1/" xmlns:cc="http://creativecommons.org/ns#" xmlns:rdf="http://www.w3.org/1999/02/22-rdf-syntax-ns#" xmlns:svg="http://www.w3.org/2000/svg" xmlns="http://www.w3.org/2000/svg" xmlns:sodipodi="http://sodipodi.sourceforge.net/DTD/sodipodi-0.dtd" xmlns:inkscape="http://www.inkscape.org/namespaces/inkscape" version="1.1" x="0px" y="0px" viewBox="0 0 50 62.5"><g transform="translate(0,-1002.3622)"><path style="text-indent:0;text-transform:none;direction:ltr;block-progression:tb;baseline-shift:baseline;color:#000000;enable-background:accumulate;" d="m 11,1015.3622 c -1.10457,0 -2,0.8954 -2,2 0,1.1045 0.89543,2 2,2 l 28,0 c 1.10457,0 2,-0.8955 2,-2 0,-1.1046 -0.89543,-2 -2,-2 l -28,0 z m 0,10 c -1.10457,0 -2,0.8954 -2,2 0,1.1045 0.89543,2 2,2 l 28,0 c 1.10457,0 2,-0.8955 2,-2 0,-1.1046 -0.89543,-2 -2,-2 l -28,0 z m 0,10 c -1.10457,0 -2,0.8954 -2,2 0,1.1045 0.89543,2 2,2 l 28,0 c 1.10457,0 2,-0.8955 2,-2 0,-1.1046 -0.89543,-2 -2,-2 l -28,0 z" fill="#000000" fill-opacity="1" stroke="none" marker="none" visibility="visible" display="inline" overflow="visible"/></g><text x="0" y="65" fill="#000000" font-size="5px" font-weight="bold" font-family="'Helvetica Neue', Helvetica, Arial-Unicode, Arial, Sans-serif">Created by Eagle Eye</text><text x="0" y="70" fill="#000000" font-size="5px" font-weight="bold" font-family="'Helvetica Neue', Helvetica, Arial-Unicode, Arial, Sans-serif">from the Noun Project</text></svg>